<?xml version="1.0" encoding="iso-8859-1"?>
<!-- Generator: Adobe Illustrator 19.0.0, SVG Export Plug-In . SVG Version: 6.00 Build 0)  -->
<svg xmlns="http://www.w3.org/2000/svg" xmlns:xlink="http://www.w3.org/1999/xlink" version="1.1" id="Capa_1" x="0px" y="0px" viewBox="0 0 512 512" style="enable-background:new 0 0 512 512;" xml:space="preserve" width="512px" height="512px">
<g>
	<g>
		<path d="M512,14.999c0-6.066-3.654-11.536-9.259-13.857c-5.602-2.32-12.056-1.039-16.345,3.252    c-24.523,24.523-57.129,38.029-91.809,38.029h-24.851c-3.979,0-7.793,1.581-10.605,4.393L170.433,235.512    c-16.623-7.957-37.295-5.128-51.222,8.8c-13.937,13.936-16.752,34.613-8.8,51.222l-97.253,97.254    c-17.544,17.543-17.544,46.089,0,63.633l42.421,42.421c17.542,17.543,46.089,17.544,63.633,0l97.254-97.254    c16.452,7.876,37.161,5.261,51.221-8.8c14.03-14.028,16.697-34.726,8.801-51.222L447.613,170.44    C488.825,129.23,512,73.413,512,14.999z M172.238,403.394l-31.816-31.816c-5.856-5.857-15.353-5.857-21.211,0    c-5.857,5.857-5.857,15.353,0,21.211l31.816,31.816l-21.211,21.211l-31.816-31.816c-5.855-5.857-15.352-5.857-21.211,0    c-5.857,5.856-5.857,15.353,0,21.211l31.816,31.816l-10.606,10.606c-5.848,5.846-15.361,5.848-21.212-0.001l-42.421-42.421    c-5.848-5.848-5.848-15.363,0-21.212l95.448-95.448c6.839,6.839,56.827,56.827,63.634,63.633L172.238,403.394z M246.476,371.577    c-5.86,5.86-15.348,5.863-21.21,0c-0.001,0-0.001,0-0.001,0l-84.844-84.843c-5.848-5.848-5.848-15.363,0-21.211    c5.848-5.847,15.362-5.848,21.212,0l84.843,84.843C252.324,356.213,252.324,365.728,246.476,371.577z M257.081,318.548    l-21.211-21.211l144.471-144.47c5.857-5.856,5.857-15.353,0-21.211c-5.855-5.856-15.352-5.857-21.211,0L214.66,276.128    l-21.212-21.212L375.948,72.418h18.639c30.35,0,59.41-8.403,84.52-24.106c-6.693,38.031-24.832,73.045-52.705,100.917    L257.081,318.548z" fill="#FFFFFF"/>
	</g>
</g>
<g>
</g>
<g>
</g>
<g>
</g>
<g>
</g>
<g>
</g>
<g>
</g>
<g>
</g>
<g>
</g>
<g>
</g>
<g>
</g>
<g>
</g>
<g>
</g>
<g>
</g>
<g>
</g>
<g>
</g>
</svg>
